<?xml version="1.0" standalone="no"?>
<!DOCTYPE svg PUBLIC "-//W3C//DTD SVG 20010904//EN"
 "http://www.w3.org/TR/2001/REC-SVG-20010904/DTD/svg10.dtd">
<svg version="1.0" xmlns="http://www.w3.org/2000/svg"
 width="400.000000pt" height="524.000000pt" viewBox="0 0 400.000000 524.000000"
 preserveAspectRatio="xMidYMid meet">

<g transform="translate(0.000000,524.000000) scale(0.100000,-0.100000)"
fill="#000000" stroke="none">
<path d="M1902 5224 c-34 -23 -50 -63 -77 -189 -31 -140 -31 -148 -3 -186 22
-29 23 -36 23 -314 0 -156 -2 -286 -5 -288 -3 -3 -51 -15 -107 -26 -171 -35
-350 -111 -500 -212 -97 -66 -269 -237 -330 -329 -156 -234 -234 -489 -235
-765 -1 -214 42 -408 127 -579 26 -52 32 -72 22 -78 -6 -4 -85 -8 -174 -8 -89
0 -186 -5 -215 -11 -146 -30 -290 -144 -358 -283 -70 -141 -71 -159 -68 -873
4 -699 1 -663 75 -806 63 -120 218 -238 351 -266 37 -8 495 -11 1565 -11 1643
0 1580 -2 1704 56 117 55 236 202 281 349 24 76 30 1269 8 1388 -38 201 -165
355 -355 428 -48 19 -83 23 -253 28 -108 3 -199 9 -203 12 -3 4 10 39 30 79
85 169 128 360 127 570 0 437 -194 821 -545 1082 -96 71 -293 169 -393 197
-40 10 -119 27 -177 36 l-105 18 -8 116 c-4 64 -4 192 0 286 5 142 9 174 24
195 32 43 31 55 -2 197 -35 149 -46 177 -76 193 -29 16 -122 12 -148 -6z m117
-184 c24 -113 25 -127 2 -156 -21 -26 -21 -31 -21 -590 l0 -564 -22 0 -23 0
-4 571 c-4 541 -5 573 -22 590 -23 23 -23 16 -4 112 8 43 15 81 15 83 0 2 15
4 34 4 33 0 35 -2 45 -50z m-229 -1670 c0 -12 -10 -25 -25 -32 -13 -6 -32 -28
-42 -50 l-19 -38 -34 25 c-19 14 -42 25 -52 25 -29 0 -20 -33 14 -55 44 -28
71 -78 71 -132 0 -68 -54 -128 -125 -139 -58 -10 -84 2 -112 48 -24 40 -24 43
-8 61 29 32 69 47 127 47 40 0 55 4 55 14 0 36 -115 23 -178 -19 l-36 -25 -18
28 c-28 45 -31 83 -10 118 17 26 39 37 153 77 111 39 177 58 232 66 4 1 7 -8
7 -19z m509 -67 c10 -28 30 -71 45 -94 41 -61 47 -92 30 -147 -11 -38 -12 -63
-3 -131 11 -81 11 -84 -17 -140 -20 -40 -29 -78 -33 -133 -7 -86 -22 -115 -87
-161 -58 -41 -127 -51 -287 -42 -157 8 -181 18 -181 76 0 19 3 45 7 59 l6 25
138 0 c163 1 243 16 243 47 0 19 -4 20 -52 14 -29 -3 -114 -9 -188 -12 -131
-6 -136 -6 -155 16 -15 16 -21 40 -23 94 l-4 71 159 0 c125 0 170 4 216 18 49
16 77 38 77 61 0 11 -35 6 -97 -14 -74 -23 -222 -35 -278 -23 -43 9 -62 35
-71 96 -9 54 10 67 103 72 120 7 283 68 283 105 0 26 -9 25 -89 -9 -78 -33
-154 -51 -216 -51 l-43 0 -11 50 c-24 113 -11 150 59 165 65 15 335 43 393 41
l58 -1 18 -52z m-594 -439 c-22 -40 -15 -123 15 -191 10 -24 15 -41 11 -38 -5
2 -23 42 -42 87 -18 46 -50 108 -71 138 -21 31 -38 59 -38 62 0 4 17 12 38 19
20 6 46 18 57 26 19 12 21 10 34 -28 12 -38 12 -46 -4 -75z m-721 -1572 c33
-116 63 -209 67 -205 7 7 66 196 114 366 l16 57 80 0 79 0 0 -29 c0 -20 -6
-30 -20 -34 -19 -5 -20 -14 -20 -120 0 -62 3 -156 7 -207 5 -78 9 -93 25 -98
12 -3 18 -14 18 -33 l0 -29 -80 0 -80 0 0 29 c0 20 6 30 20 34 19 5 20 13 19
199 l-1 193 -43 -135 c-24 -74 -55 -175 -70 -223 l-27 -88 -46 3 -47 3 -61
210 c-33 116 -63 217 -66 225 -4 8 -7 -74 -7 -183 l-1 -197 25 -10 c18 -7 25
-17 25 -35 0 -25 -1 -25 -80 -25 l-80 0 0 29 c0 20 6 30 20 34 19 5 20 14 20
211 0 195 -1 206 -20 216 -12 6 -20 21 -20 36 0 25 0 25 87 22 l86 -3 61 -213z
m696 186 c7 -18 36 -103 65 -188 77 -225 94 -267 110 -274 8 -3 15 -17 15 -31
0 -25 0 -25 -95 -25 -93 0 -95 0 -95 24 0 18 7 25 30 30 34 6 36 15 14 80
l-16 47 -86 -3 -86 -3 -17 -57 -16 -56 33 -7 c28 -5 34 -10 34 -31 0 -25 0
-25 -87 -22 -82 3 -88 5 -91 25 -2 14 3 23 17 28 17 5 34 46 87 213 94 295 88
282 134 282 34 0 39 -4 50 -32z m400 18 c0 -8 3 -21 6 -30 4 -12 0 -16 -15
-16 -29 0 -32 -12 -29 -122 l3 -96 83 99 c45 54 82 103 82 109 0 5 -9 10 -20
10 -16 0 -20 7 -20 30 l0 30 90 0 c90 0 90 0 90 -25 0 -14 -7 -28 -16 -32 -29
-11 -165 -185 -159 -202 21 -55 131 -224 152 -232 16 -6 23 -16 23 -34 0 -24
-3 -25 -58 -25 l-58 0 -35 72 c-19 39 -47 91 -62 116 -28 44 -28 44 -49 26
-30 -28 -48 -68 -48 -109 0 -29 5 -37 25 -45 18 -7 25 -17 25 -35 l0 -26 -87
3 c-87 3 -88 3 -91 30 -3 21 1 27 20 30 l23 3 3 213 2 212 -25 0 c-21 0 -25 5
-25 30 l0 30 85 0 c67 0 85 -3 85 -14z m664 -13 c3 -16 6 -48 8 -73 2 -40 0
-45 -20 -48 -19 -3 -26 4 -39 37 l-16 41 -74 0 -73 0 0 -80 0 -80 60 0 60 0 0
-35 0 -35 -60 0 -60 0 0 -90 0 -90 79 0 c78 0 79 0 86 27 9 37 23 53 48 53 18
0 19 -4 13 -52 -3 -29 -6 -63 -6 -76 l0 -22 -172 2 c-171 3 -173 3 -176 25 -3
17 3 26 22 33 l26 10 0 205 0 205 -25 10 c-18 7 -25 17 -25 35 l0 25 169 0
169 0 6 -27z m349 16 c59 -16 104 -62 116 -117 15 -71 0 -120 -48 -163 -23
-20 -41 -40 -41 -43 0 -4 16 -40 35 -81 26 -57 40 -75 55 -75 16 0 20 -7 20
-30 0 -30 -1 -30 -53 -30 l-53 0 -43 100 -44 100 -39 0 -39 0 3 -67 c3 -66 4
-68 31 -71 23 -3 27 -8 27 -33 l0 -29 -95 0 c-95 0 -95 0 -95 25 0 18 7 28 25
35 l25 10 -2 207 c-3 207 -3 208 -25 211 -18 3 -23 10 -23 33 l0 29 113 0 c61
0 129 -5 150 -11z m-2740 -164 c14 -28 22 -35 46 -35 40 0 48 -17 20 -46 -17
-18 -22 -34 -21 -64 3 -45 2 -46 -39 -25 -27 14 -33 14 -61 0 -44 -21 -47 -20
-41 26 5 34 2 44 -21 68 -23 24 -25 29 -11 35 9 3 25 6 36 6 12 0 28 14 40 35
12 19 24 35 28 35 4 0 15 -16 24 -35z m3339 5 c18 -31 22 -34 72 -45 l29 -6
-28 -29 c-24 -25 -27 -34 -21 -69 7 -46 1 -49 -44 -26 -27 14 -33 14 -60 0
-41 -21 -43 -20 -38 30 5 41 3 48 -23 69 -31 26 -32 26 32 40 17 4 31 17 39
36 15 37 21 37 42 0z m-1304 -648 c7 -9 10 -28 7 -42 -4 -19 0 -32 15 -45 20
-18 26 -50 12 -72 -10 -16 -76 -43 -105 -43 -23 0 -24 4 -30 71 -4 43 -14 84
-26 104 l-20 34 42 10 c51 11 88 6 105 -17z m-710 12 c16 -5 22 -14 22 -35 0
-34 -15 -38 -30 -9 -27 51 -110 3 -110 -64 0 -43 19 -66 60 -75 18 -3 36 -13
38 -20 6 -18 -71 -9 -95 11 -54 44 -48 143 10 178 33 20 65 24 105 14z m172
-32 c0 -4 -4 -12 -9 -18 -5 -5 -12 -44 -16 -86 l-7 -78 36 0 c20 0 36 5 36 10
0 6 5 10 10 10 6 0 10 -11 10 -25 0 -26 -1 -26 -67 -23 -55 2 -67 6 -64 18 15
56 22 155 12 176 -10 23 -9 24 24 24 19 0 35 -4 35 -8z m210 -1 c0 -6 -4 -13
-10 -16 -11 -7 -12 -96 -1 -135 6 -21 13 -25 41 -25 l35 0 3 74 c2 42 -2 79
-8 85 -18 18 -11 26 21 26 24 0 30 -3 25 -16 -3 -9 -6 -49 -6 -90 0 -61 -4
-78 -20 -94 -20 -20 -74 -27 -97 -12 -20 12 -33 60 -33 117 0 30 -4 57 -10 60
-24 15 -9 35 25 35 19 0 35 -4 35 -9z"/>
<path d="M1427 3252 c-17 -19 -23 -62 -9 -62 7 0 62 65 62 74 0 14 -38 4 -53
-12z"/>
<path d="M2200 3301 c0 -30 11 -51 26 -51 17 0 19 41 2 58 -17 17 -28 15 -28
-7z"/>
<path d="M2250 3148 c0 -7 7 -22 15 -32 8 -11 15 -31 15 -44 0 -17 5 -22 18
-20 37 8 5 108 -35 108 -7 0 -13 -6 -13 -12z"/>
<path d="M2260 2861 c0 -16 -3 -43 -6 -60 -5 -25 -3 -31 10 -31 22 0 39 47 31
87 -8 42 -35 45 -35 4z"/>
<path d="M2216 2584 c-7 -62 -4 -73 18 -55 17 14 29 72 20 95 -13 34 -31 15
-38 -40z"/>
<path d="M1612 1383 c-11 -20 -52 -150 -52 -164 0 -5 29 -9 64 -9 l64 0 -28
91 c-16 50 -31 93 -33 96 -3 3 -10 -4 -15 -14z"/>
<path d="M2960 1340 l0 -110 34 0 c81 0 136 43 136 105 0 59 -27 91 -91 104
-84 18 -79 24 -79 -99z"/>
<path d="M2304 676 c-10 -26 1 -51 23 -54 28 -4 50 32 32 54 -15 18 -48 18
-55 0z"/>
<path d="M2324 585 c-4 -8 -3 -27 0 -41 6 -22 11 -25 34 -19 40 10 47 21 34
50 -13 28 -59 35 -68 10z"/>
</g>
</svg>
